inDegrees=yes
name=ik_Shooting_orientations.mot
DataType=double
version=3
OpenSimVersion=4.3-2021-08-27-4bc7ad9
endheader
time	pelvis_tilt	pelvis_list	pelvis_rotation	pelvis_tx	pelvis_ty	pelvis_tz	hip_flexion_r	hip_adduction_r	hip_rotation_r	knee_angle_r	knee_angle_r_beta	ankle_angle_r	subtalar_angle_r	mtp_angle_r	hip_flexion_l	hip_adduction_l	hip_rotation_l	knee_angle_l	knee_angle_l_beta	ankle_angle_l	subtalar_angle_l	mtp_angle_l	lumbar_extension	lumbar_bending	lumbar_rotation	arm_flex_r	arm_add_r	arm_rot_r	elbow_flex_r	pro_sup_r	wrist_flex_r	wrist_dev_r	arm_flex_l	arm_add_l	arm_rot_l	elbow_flex_l	pro_sup_l	wrist_flex_l	wrist_dev_l
7.25999999999989	29.50280766905076	51.8771982180988	34.46879206647244	0	0.9399999999999999	0	119.9844359357829	-49.99585273422575	39.99750144955197	31.47393280446981	0.5493237559894509	-4.015701627598512	0	0	-29.9947042099686	-49.99366690977681	15.86866659796115	31.47393280446981	0.5493237559894509	-4.015701627598512	0	0	0	0	0	0	-5.158777096441133	0	39.03024443174851	32.13084299468742	0	0	0	-5.158777096441133	0	39.03024443174851	32.13084299468742	0	0
7.269999999999889	14.32152011552044	50.8034955826588	46.88719446401903	0	0.9399999999999999	0	119.9940303333354	-49.99626143508146	39.99709271414655	31.48862473071851	0.5495801784759509	-4.017927107970685	0	0	-29.99292172684165	-49.98858561236282	11.85733633398035	31.48862473071851	0.5495801784759509	-4.017927107970685	0	0	0	0	0	0	-5.161371262437125	0	39.05370732216019	32.15013990317026	0	0	0	-5.161371262437125	0	39.05370732216019	32.15013990317026	0	0
7.279999999999889	14.46229940638393	50.7484627612095	46.69741989782374	0	0.9399999999999999	0	119.9940139706539	-49.99629729976716	39.99709169453233	31.49332626967657	0.5496622358106797	-4.018640785927825	0	0	-29.99295756599206	-49.98822958064794	11.88819589093627	31.49332626967657	0.5496622358106797	-4.018640785927825	0	0	0	0	0	0	-5.162202333443863	0	39.06120530149504	32.15631633367962	0	0	0	-5.162202333443863	0	39.06120530149504	32.15631633367962	0	0
7.289999999999889	29.94707350221021	51.62906964082671	34.12414892999431	0	0.9399999999999999	0	119.9843891773889	-49.99593839851102	39.99749488419643	31.52491410814627	0.5502135475955642	-4.023392686513001	0	0	-29.99478979612882	-49.99332902378236	15.52621829215253	31.52491410814627	0.5502135475955642	-4.023392686513001	0	0	0	0	0	0	-5.167782380503845	0	39.11160151082523	32.19762789770044	0	0	0	-5.167782380503845	0	39.11160151082523	32.19762789770044	0	0
7.299999999999889	30.10296794458024	51.57168871240435	34.03456081639403	0	0.9399999999999999	0	119.984286971329	-49.9959430006366	39.99749379700459	31.53145956497867	0.5503277873683367	-4.024375620661277	0	0	-29.99479743069984	-49.99325583952589	15.55820007525161	31.53145956497867	0.5503277873683367	-4.024375620661277	0	0	0	0	0	0	-5.168942007703214	0	39.12199611503699	32.20615457761188	0	0	0	-5.168942007703214	0	39.12199611503699	32.20615457761188	0	0
7.309999999999889	22.99436296190997	54.81760114529837	37.90867209296057	0	0.9399999999999999	0	119.991003855352	-49.99536054237154	39.99738734462386	31.5449617874114	0.5505634456061244	-4.026456799998757	0	0	-29.99444214135688	-49.98831004197815	16.13979889654286	31.5449617874114	0.5505634456061244	-4.026456799998757	0	0	0	0	0	0	-5.171325781109421	0	39.14376061060675	32.22415299508184	0	0	0	-5.171325781109421	0	39.14376061060675	32.22415299508184	0	0
7.319999999999888	34.00326294263824	53.98520879985	28.98340880161675	0	0.9399999999999999	0	119.9771929115841	-49.99520413116796	39.99758705327544	31.55869440767856	0.5508031250447125	-4.028514840896544	0	0	-29.99526841846004	-49.99253554247151	18.10297594398615	31.55869440767856	0.5508031250447125	-4.028514840896544	0	0	0	0	0	0	-5.17375771226948	0	39.16562990376468	32.2420537847973	0	0	0	-5.17375771226948	0	39.16562990376468	32.2420537847973	0	0
7.329999999999888	30.47550745409223	51.38423399251752	33.75691544626964	0	0.9399999999999999	0	119.9839902080817	-49.99602604134538	39.99748409915563	31.57328239219406	0.5510577334057379	-4.030740998278435	0	0	-29.99485288844124	-49.99284384337584	15.62111443259049	31.57328239219406	0.5510577334057379	-4.030740998278435	0	0	0	0	0	0	-5.176337470392468	0	39.1890642346852	32.26135487297496	0	0	0	-5.176337470392468	0	39.1890642346852	32.26135487297496	0	0
